<?xml version="1.0" standalone="no"?>
<!DOCTYPE svg PUBLIC "-//W3C//DTD SVG 20010904//EN"
 "http://www.w3.org/TR/2001/REC-SVG-20010904/DTD/svg10.dtd">
<svg version="1.0" xmlns="http://www.w3.org/2000/svg"
 width="700.000000pt" height="700.000000pt" viewBox="0 0 700.000000 700.000000"
 preserveAspectRatio="xMidYMid meet">
<metadata>
Created by potrace 1.14, written by Peter Selinger 2001-2017
</metadata>
<g transform="translate(0.000000,700.000000) scale(0.100000,-0.100000)"
fill="#000000" stroke="none">
<path d="M1449 6996 c-2 -2 -29 -6 -60 -9 -31 -4 -76 -11 -100 -16 -24 -5 -55
-12 -69 -15 -75 -14 -198 -57 -305 -106 -373 -172 -682 -511 -820 -900 -27
-75 -62 -203 -70 -258 -3 -20 -10 -62 -15 -92 -5 -33 -8 -887 -7 -2130 l2
-2075 23 -107 c92 -432 322 -777 681 -1021 81 -54 261 -147 326 -167 22 -7 49
-17 60 -21 33 -14 165 -46 245 -60 86 -15 363 -18 460 -5 94 12 272 58 366 95
378 150 698 454 868 826 40 89 98 268 110 345 19 114 25 172 27 228 1 34 5 62
8 62 3 0 258 -253 566 -562 308 -308 596 -591 640 -628 303 -256 657 -382
1050 -376 399 7 743 141 1035 403 257 231 424 524 503 880 l21 98 3 2075 c2
1993 1 2080 -17 2190 -25 154 -25 155 -64 268 -150 442 -481 793 -910 966 -95
39 -242 81 -316 91 -25 4 -64 10 -88 15 -49 9 -372 5 -417 -5 -16 -4 -50 -10
-75 -15 -213 -40 -434 -135 -625 -271 -160 -113 -348 -319 -444 -489 -64 -111
-143 -302 -165 -395 -5 -23 -26 -122 -31 -150 -3 -16 -8 -76 -12 -133 -3 -56
-10 -101 -14 -100 -5 2 -277 271 -606 599 -576 574 -668 658 -808 741 -181
108 -393 184 -592 213 -45 6 -359 16 -364 11z m331 -246 c161 -22 352 -87 484
-165 143 -85 241 -176 893 -828 l668 -668 1 -1817 c0 -999 4 -1837 8 -1862 4
-25 14 -76 21 -115 7 -38 12 -71 11 -72 -1 -1 -171 166 -376 371 -411 410
-408 407 -484 371 -58 -28 -63 -52 -69 -315 -5 -247 -6 -258 -38 -386 -76
-311 -263 -587 -527 -777 -312 -224 -737 -308 -1097 -216 -22 6 -52 13 -68 16
-15 3 -30 9 -33 14 -3 5 -14 9 -25 9 -10 0 -27 4 -37 9 -9 5 -42 19 -72 32
-317 136 -584 417 -716 751 -12 32 -20 58 -17 58 3 0 1 6 -5 13 -14 17 -50
178 -59 262 -9 89 -9 4048 0 4135 18 159 83 357 170 512 89 160 265 351 413
450 183 122 422 209 619 225 39 3 71 6 72 7 7 6 190 -4 263 -14z m3828 0 c431
-60 820 -344 1020 -745 62 -125 116 -308 129 -442 9 -88 9 -4062 0 -4128 -18
-135 -37 -208 -83 -332 -54 -145 -145 -297 -238 -397 -15 -17 -38 -42 -50 -56
-21 -24 -80 -78 -140 -128 -48 -41 -163 -112 -244 -151 -510 -251 -1134 -147
-1538 255 -203 203 -314 410 -381 709 -17 76 -18 194 -18 2140 0 1133 3 2088
8 2122 40 319 232 661 487 864 209 167 464 272 715 296 33 3 61 6 62 7 8 6
200 -4 271 -14z"/>
</g>
</svg>
